<?xml version="1.0" encoding="UTF-8"?>
<svg version="1.1" xmlns="http://www.w3.org/2000/svg" width="783" height="129">
<path d="M0 0 C8.26766641 -0.06992433 16.53520649 -0.12302434 24.80309677 -0.15543652 C28.64341528 -0.17100327 32.48352949 -0.192074 36.32373047 -0.22631836 C40.03905456 -0.25923673 43.75418382 -0.27692036 47.46964264 -0.28463173 C48.87762768 -0.29011765 50.28560369 -0.30082777 51.69350433 -0.31719017 C65.98375177 -0.47646051 77.7271317 1.16254582 88.375 11.25 C93.19973816 19.4149415 94.01412445 27.76671037 92 37 C89.16120772 44.20465903 85.03797759 48.80218876 78 52 C74.5 53.3125 74.5 53.3125 72 54 C74.89503041 55.51422097 77.80908914 56.69024291 80.875 57.8125 C88.3920334 60.81931336 92.43030042 64.72838974 96 72 C98.73945672 80.32722276 97.87004675 90.2599065 94 98 C90.18791306 105.20060867 84.51403623 108.36287215 76.9375 110.75 C70.76833439 112.51555156 64.64154351 113.12600691 58.23852539 113.11352539 C56.93770523 113.11344986 55.63688507 113.11337433 54.29664612 113.11329651 C52.89698243 113.10819141 51.49731914 113.10297544 50.09765625 113.09765625 C48.65034535 113.09578866 47.20303381 113.09436637 45.75572205 113.09336853 C41.9664024 113.08957018 38.17712174 113.0797631 34.38781738 113.06866455 C30.51310758 113.05839247 26.6383914 113.05385854 22.76367188 113.04882812 C15.17576357 113.03813816 7.58788727 113.02109434 0 113 C0 111.68 0 110.36 0 109 C4.62 109 9.24 109 14 109 C14 74.02 14 39.04 14 3 C9.38 3 4.76 3 0 3 C0 2.01 0 1.02 0 0 Z M38 3 C38 19.5 38 36 38 53 C51.08840137 53.87050531 51.08840137 53.87050531 61.7421875 48.3359375 C67.51334203 41.40502943 68.24132962 34.73880393 67.875 25.9375 C67.18776024 18.52170355 65.34681321 13.93351651 60.75 8.1875 C53.31088218 2.27001991 47.77187815 3 38 3 Z M38 57 C38 74.16 38 91.32 38 109 C51.12263413 110.02729976 51.12263413 110.02729976 62 105 C69.20394343 97.37420403 70.88317261 89.29379135 71 79 C70.42170879 72.52864596 68.80070468 67.27875651 65 62 C55.78241974 54.85167245 51.79720686 57 38 57 Z " fill="#040707" transform="translate(292,14)"/>
<path d="M0 0 C8.54570579 -0.06985677 17.09129003 -0.12299078 25.6372118 -0.15543652 C29.60647054 -0.17101768 33.57553231 -0.19211576 37.54467773 -0.22631836 C41.38318983 -0.25918404 45.22151381 -0.27690961 49.06015587 -0.28463173 C50.51641483 -0.29012688 51.97266482 -0.30085594 53.42884254 -0.31719017 C65.4113253 -0.44611678 78.52724366 0.3842801 87.94140625 8.71875 C93.43701579 14.50118676 96.02853112 20.5312158 96.375 28.5 C96.06573235 36.20479835 93.6221779 42.62226462 88 48 C82.96003264 51.41050423 77.90867945 53.61711758 72 55 C72.64066406 55.1959375 73.28132813 55.391875 73.94140625 55.59375 C80.63871084 57.90936053 85.33476226 60.80701209 89 67 C92.43869641 74.46661921 92.69619015 82.21135702 93.125 90.3125 C93.27041389 92.80877172 93.41872321 95.30487693 93.5703125 97.80078125 C93.62977051 98.89559814 93.68922852 99.99041504 93.75048828 101.1184082 C93.96024121 103.54082881 94.31779834 105.67495256 95 108 C99.51617599 108.07654536 103.59085217 108.10228696 108 107 C108 108.65 108 110.3 108 112 C102.21930598 113.64224262 96.99996646 114.36476115 91 114.375 C90.24460937 114.39949219 89.48921875 114.42398438 88.7109375 114.44921875 C83.02237935 114.47854121 78.72267935 113.22337175 74 110 C72.16015625 108 72.16015625 108 71.0625 106 C70.68222656 105.34 70.30195313 104.68 69.91015625 104 C68.07974309 99.97780456 67.81717347 96.1564901 67.60546875 91.765625 C67.53650391 90.55132812 67.46753906 89.33703125 67.39648438 88.0859375 C67.25804362 85.54483805 67.1302983 83.00313154 67.01367188 80.4609375 C66.58661182 73.31051603 65.91110201 68.06844533 62 62 C55.16458648 56.70255452 47.67262338 57.6194731 39 57 C39 74.16 39 91.32 39 109 C44.28 109 49.56 109 55 109 C55 110.32 55 111.64 55 113 C36.85 113 18.7 113 0 113 C0 111.68 0 110.36 0 109 C4.95 109 9.9 109 15 109 C15 74.02 15 39.04 15 3 C10.05 3 5.1 3 0 3 C0 2.01 0 1.02 0 0 Z M39 3 C39 19.5 39 36 39 53 C53.14574599 54.02287121 53.14574599 54.02287121 64 49 C69.89353961 42.95136724 70.79079099 36.32365285 71.1875 28.125 C71.03736674 19.51735966 68.90931013 13.02100471 62.8125 6.75 C55.39163839 2.132575 47.70163217 3 39 3 Z " fill="#040707" transform="translate(108,14)"/>
<path d="M0 0 C29.04 0 58.08 0 88 0 C88 10.23 88 20.46 88 31 C86.68 31 85.36 31 84 31 C83.70867187 30.154375 83.41734375 29.30875 83.1171875 28.4375 C79.28691608 17.83800676 76.0535082 10.89558524 65.66015625 5.91015625 C57.1039919 2.98271676 46.57289914 3.47627217 38 3 C38 19.17 38 35.34 38 52 C48.97402754 50.92225017 48.97402754 50.92225017 56 45 C57.56096689 42.07441425 58.84885868 39.10808156 60 36 C61.32 36 62.64 36 64 36 C64 48.54 64 61.08 64 74 C62.68 74 61.36 74 60 74 C59.78085937 73.33613281 59.56171875 72.67226562 59.3359375 71.98828125 C56.77131915 64.84696592 54.4326583 61.2731581 47.5625 57.75 C44.30946634 56.73189018 44.30946634 56.73189018 38 56 C38 73.49 38 90.98 38 109 C58.96587891 109.15955378 58.96587891 109.15955378 76.50390625 99.890625 C81.50821138 93.56664672 83.59355647 85.79936865 85 78 C86.32 78 87.64 78 89 78 C89 89.55 89 101.1 89 113 C59.63 113 30.26 113 0 113 C0 111.68 0 110.36 0 109 C4.62 109 9.24 109 14 109 C14 74.02 14 39.04 14 3 C9.38 3 4.76 3 0 3 C0 2.01 0 1.02 0 0 Z " fill="#040707" transform="translate(401,14)"/>
<path d="M0 0 C3.63 0 7.26 0 11 0 C19.65775969 24.65790864 28.24844333 49.3384307 36.78076172 74.04003906 C37.14603973 75.09693939 37.51131775 76.15383972 37.88766479 77.24276733 C38.5990723 79.30136075 39.3099629 81.36013288 40.02029419 83.4190979 C41.61117011 88.02262598 43.21521019 92.62021844 44.86328125 97.20361328 C45.14691528 97.99461929 45.43054932 98.78562531 45.72277832 99.6006012 C46.24414616 101.04968379 46.76948764 102.49734582 47.29968262 103.94322205 C48.32118395 106.78256446 49 108.95449576 49 112 C52.96 112 56.92 112 61 112 C61 113.32 61 114.64 61 116 C43.51 116 26.02 116 8 116 C8 114.68 8 113.36 8 112 C12.29 112 16.58 112 21 112 C17.7 102.1 14.4 92.2 11 82 C-6.325 81.505 -6.325 81.505 -24 81 C-24.99 84.63 -25.98 88.26 -27 92 C-27.58167045 93.82503256 -28.18227368 95.64450524 -28.82421875 97.44921875 C-29.28344727 98.74956055 -29.28344727 98.74956055 -29.75195312 100.07617188 C-30.06068359 100.93791016 -30.36941406 101.79964844 -30.6875 102.6875 C-31.00783203 103.59177734 -31.32816406 104.49605469 -31.65820312 105.42773438 C-32.43526561 107.61974647 -33.21711303 109.81006139 -34 112 C-29.05 112 -24.1 112 -19 112 C-19 113.32 -19 114.64 -19 116 C-30.22 116 -41.44 116 -53 116 C-53 114.68 -53 113.36 -53 112 C-48.38 112 -43.76 112 -39 112 C-38.38560059 109.65080444 -38.38560059 109.65080444 -37.75878906 107.25415039 C-36.06277635 101.04433372 -34.00829242 94.99913635 -31.859375 88.93359375 C-31.45985123 87.79632843 -31.06032745 86.65906311 -30.6486969 85.48733521 C-29.35302026 81.80267416 -28.0516985 78.12003752 -26.75 74.4375 C-26.0781969 72.53165318 -25.40696141 70.62560713 -24.73578739 68.71953869 C-18.96143656 52.32204823 -13.15234022 35.93677815 -7.3125 19.5625 C-6.99317505 18.66651093 -6.6738501 17.77052185 -6.34484863 16.84738159 C-5.45673722 14.3573223 -4.5667026 11.86796135 -3.67578125 9.37890625 C-3.41632217 8.65148224 -3.1568631 7.92405823 -2.88954163 7.17459106 C-1.11595787 2.23191574 -1.11595787 2.23191574 0 0 Z M-6 29 C-8.28297673 35.51297565 -10.56114825 42.02761725 -12.8359375 48.54345703 C-13.61086426 50.76129482 -14.38690291 52.97874442 -15.1640625 55.19580078 C-16.27894819 58.37692233 -17.38986811 61.55940438 -18.5 64.7421875 C-19.0249707 66.23599442 -19.0249707 66.23599442 -19.56054688 67.75997925 C-19.88087891 68.68078278 -20.20121094 69.6015863 -20.53125 70.55029297 C-20.81548828 71.3630368 -21.09972656 72.17578064 -21.39257812 73.01315308 C-22.09745457 74.97249838 -22.09745457 74.97249838 -22 77 C-11.44 77 -0.88 77 10 77 C5.03839372 60.98754338 0.07373445 44.97728927 -5 29 C-5.33 29 -5.66 29 -6 29 Z " fill="#040707" transform="translate(666,11)"/>
<path d="M0 0 C32.67 0 65.34 0 99 0 C99 12.21 99 24.42 99 37 C97.68 37 96.36 37 95 37 C94.84144531 36.03320312 94.68289062 35.06640625 94.51953125 34.0703125 C92.72358714 23.78071825 90.62509582 13.80785887 81.875 7.11328125 C75.85375897 3.53816939 68.83407971 3.68340797 62 3 C62 37.98 62 72.96 62 109 C67.61 109 73.22 109 79 109 C79 110.32 79 111.64 79 113 C59.86 113 40.72 113 21 113 C21 111.68 21 110.36 21 109 C26.61 109 32.22 109 38 109 C38 74.02 38 39.04 38 3 C22.67675829 4.20806032 22.67675829 4.20806032 12.15625 13.1875 C7.60116789 20.32789899 5.84924423 28.84651408 4 37 C2.68 37 1.36 37 0 37 C0 24.79 0 12.58 0 0 Z " fill="#040707" transform="translate(0,14)"/>
<path d="M0 0 C2.13522344 1.53272144 2.13522344 1.53272144 4.1875 1.296875 C6.7613201 0.16136613 9.07848661 -1.26531697 11.43359375 -2.80078125 C13.3125 -3.640625 13.3125 -3.640625 18.3125 -3.640625 C18.3125 7.579375 18.3125 18.799375 18.3125 30.359375 C16.9925 30.359375 15.6725 30.359375 14.3125 30.359375 C13.56806641 28.76609375 13.56806641 28.76609375 12.80859375 27.140625 C7.44180771 15.88554074 2.42327476 6.69783917 -9.3125 1.109375 C-16.65652478 -0.52263051 -24.32344928 -0.92351777 -30.94921875 3.0546875 C-40.41192189 10.15703098 -43.80279138 22.07689081 -45.6875 33.359375 C-48.64061347 54.57342199 -48.18962473 78.80136761 -36.3125 97.359375 C-31.30842085 103.0783226 -25.97592032 105.02302831 -18.5 105.609375 C-9.93369078 105.04764981 -2.07651857 102.20212061 4.3125 96.359375 C9.35492788 90.0214617 12.65495484 82.96886768 15.3125 75.359375 C16.9625 75.359375 18.6125 75.359375 20.3125 75.359375 C20.3125 86.579375 20.3125 97.799375 20.3125 109.359375 C14.41885608 109.359375 13.44588643 108.21447087 9.27734375 104.57421875 C7.4150345 103.15368915 7.4150345 103.15368915 5.3359375 103.5234375 C3.09748702 104.44820276 1.0932398 105.5785299 -1 106.796875 C-13.10546299 112.90285633 -27.32166022 112.29444451 -40.015625 108.31640625 C-46.30793765 105.87378739 -51.62611183 102.81690992 -56.6875 98.359375 C-57.29207031 97.83601563 -57.89664063 97.31265625 -58.51953125 96.7734375 C-69.16646537 86.89196923 -74.3812424 72.82554113 -74.92578125 58.48828125 C-75.3176319 38.84103108 -72.07648273 22.32814273 -58.1015625 7.58203125 C-42.94886771 -6.36923628 -17.91924978 -10.9390769 0 0 Z " fill="#040707" transform="translate(579.6875,17.640625)"/>
<path d="M0 0 C19.47 0 38.94 0 59 0 C59 0.99 59 1.98 59 3 C53.06 3 47.12 3 41 3 C41 37.98 41 72.96 41 109 C46.94 109 52.88 109 59 109 C59 110.32 59 111.64 59 113 C39.53 113 20.06 113 0 113 C0 111.68 0 110.36 0 109 C5.61 109 11.22 109 17 109 C17 74.02 17 39.04 17 3 C11.39 3 5.78 3 0 3 C0 2.01 0 1.02 0 0 Z " fill="#040707" transform="translate(224,14)"/>
<path d="M0 0 C3.37483413 -0.08767555 6.74937215 -0.14061628 10.125 -0.1875 C11.55199219 -0.22520508 11.55199219 -0.22520508 13.0078125 -0.26367188 C18.45949356 -0.32046022 22.28132574 -0.07100604 27 3 C28.57897833 4.57897833 28.24543509 6.19362572 28.3125 8.375 C28.29187678 12.69900207 28.29187678 12.69900207 26 15.0625 C25.34 15.371875 24.68 15.68125 24 16 C24.48082031 16.54140625 24.96164062 17.0828125 25.45703125 17.640625 C27.31323558 20.47897288 27.48737656 22.38792626 27.6875 25.75 C27.75324219 26.73484375 27.81898438 27.7196875 27.88671875 28.734375 C27.92410156 29.48203125 27.96148438 30.2296875 28 31 C29.32 31 30.64 31 32 31 C32 31.66 32 32.32 32 33 C24.68292683 34.34146341 24.68292683 34.34146341 21.8125 32.90625 C19.35808466 30.32488214 19.20163164 28.31264524 18.75 24.8125 C18.60046875 23.72582031 18.4509375 22.63914062 18.296875 21.51953125 C18.19890625 20.68808594 18.1009375 19.85664063 18 19 C16.02 18.34 14.04 17.68 12 17 C12 21.62 12 26.24 12 31 C13.65 31 15.3 31 17 31 C17 31.66 17 32.32 17 33 C11.39 33 5.78 33 0 33 C0 32.34 0 31.68 0 31 C1.32 31 2.64 31 4 31 C4 21.43 4 11.86 4 2 C2.68 2 1.36 2 0 2 C0 1.34 0 0.68 0 0 Z M12 2 C12 6.29 12 10.58 12 15 C13.98 15 15.96 15 18 15 C20.18939909 13.21892751 20.18939909 13.21892751 20.265625 10.90625 C20.26046875 10.1121875 20.2553125 9.318125 20.25 8.5 C20.25515625 7.7059375 20.2603125 6.911875 20.265625 6.09375 C20.18939909 3.78107249 20.18939909 3.78107249 18 2 C16.02 2 14.04 2 12 2 Z " fill="#040707" transform="translate(740,12)"/>
<path d="M0 0 C6.8309277 5.7645384 10.66630564 10.7207216 11.6796875 19.6640625 C12.07800573 29.33056591 10.67360677 36.05930959 4.29296875 43.39453125 C-1.81409066 49.37165322 -7.83813322 51.5899395 -16.22265625 52.48828125 C-24.52256024 51.59900582 -31.80751418 49.20575092 -37.72265625 43.11328125 C-43.6515417 34.93684445 -45.67068358 28.18106442 -44.72265625 18.11328125 C-42.77723084 10.44274679 -39.1128098 3.82629749 -32.2890625 -0.390625 C-21.71023843 -5.90796118 -10.22082887 -7.08272646 0 0 Z M-37.5390625 8.31640625 C-42.1593746 15.33074146 -42.76106 21.78627215 -41.72265625 30.11328125 C-39.09081921 38.6521303 -34.05046895 43.56750907 -26.53515625 47.98828125 C-18.77921195 50.27692055 -11.01091744 50.20280745 -3.75390625 46.4296875 C3.2957824 41.86094697 7.16290778 36.24572728 9.27734375 28.11328125 C10.42036511 21.20801817 8.6617679 15.16118714 5.27734375 9.11328125 C1.17828939 3.54876186 -4.03095859 -0.12027682 -10.72265625 -1.88671875 C-21.48079322 -3.42774918 -30.86834945 -0.52748527 -37.5390625 8.31640625 Z " fill="#040707" transform="translate(771.72265625,4.88671875)"/>
</svg>
